<?xml version="1.0" encoding="utf-8"?><svg xmlns="http://www.w3.org/2000/svg" xmlns:xlink="http://www.w3.org/1999/xlink"><symbol viewBox="0 0 40 40" id="account" xmlns="http://www.w3.org/2000/svg"><path d="M20 0c11 0 20 9 20 20s-9 20-20 20S0 31 0 20 9 0 20 0zm0 3.8C11 3.8 3.8 11 3.8 20S11.1 36.2 20 36.2 36.2 29 36.2 20 29 3.8 20 3.8zm-5 17.9c1.4 1.1 3.1 1.7 5 1.7 1.8 0 3.6-.6 4.9-1.7 2 .6 3.8 1.4 4.8 2 1.2.8 1.8 2.3 1.4 3.7-.4 1.4-1.7 2.4-3.2 2.4H12.1c-1.5 0-2.8-1-3.2-2.4-.4-1.4.1-2.9 1.4-3.7.9-.6 2.8-1.4 4.7-2zm5-13.2c3.3 0 5.9 2.8 5.9 6.2s-2.6 6.2-5.9 6.2-5.9-2.8-5.9-6.2 2.6-6.2 5.9-6.2z"/></symbol><symbol viewBox="0 0 40 40" id="airplay" xmlns="http://www.w3.org/2000/svg"><path d="M8.5 32.2l-2 2.4C2.6 31 0 25.8 0 20 0 9 9 0 20.1 0S40 9 40 19.8c0 5.8-2.4 10.8-6.3 14.4l-2-2.2c3.2-3.1 5.1-7.3 5.1-12 0-9.3-7.5-16.8-16.7-16.8S3.2 10.7 3.2 20c0 4.7 2.1 9.2 5.3 12.2zM34 20c0-7.8-6.3-14.1-14.1-14.1S5.8 12.2 5.8 20c0 3.9 1.7 7.6 4.4 10.2l2-2.4c-2-2-3.2-4.7-3.2-7.8 0-5.9 5-10.8 10.9-10.8S30.8 14.1 30.8 20c0 2.9-1.2 5.6-3.1 7.6l2 2.4c2.8-2.7 4.3-6.1 4.3-10zm-13.9-8.1c-4.4 0-8 3.6-8 8 0 2.2.9 4.1 2.2 5.4l2-2.4c-.7-.8-1.2-1.9-1.2-3.1 0-2.5 2.2-4.7 4.9-4.7s5 2.2 5 4.9c0 1-.3 2-1 2.9l2 2.4c1.2-1.4 2-3.2 2-5.3.1-4.4-3.5-8.1-7.9-8.1zm1.5 12.3c-.3-.3-.9-.7-1.4-.7-.5 0-1 .2-1.4.7l-11 12.9c-.5.5-.5 1.4-.3 1.9.3.7 1 1 1.7 1h22c.7 0 1.4-.3 1.7-1s.2-1.4-.3-1.9l-11-12.9z"/></symbol><symbol viewBox="0 0 39 40" id="arrow" xmlns="http://www.w3.org/2000/svg"><path d="M18.3.4l-1.7 1.7c-.5.5-.5 1.2 0 1.7l13.7 13.8H1.2c-.7 0-1.2.5-1.2 1.2v2.4c0 .7.5 1.2 1.2 1.2h29.1L16.6 36.2c-.5.5-.5 1.2 0 1.7l1.7 1.7c.5.5 1.2.5 1.7 0l18.7-18.8c.5-.5.5-1.2 0-1.7L20 .4c-.5-.5-1.2-.5-1.7 0z"/></symbol><symbol viewBox="0 0 40 40" id="audio-added" xmlns="http://www.w3.org/2000/svg"><path d="M20.2 0C31.2 0 40 9.2 40 20.4v11c0 7.6-8 8.6-8.6 8.6H30c-.8 0-1.4-.6-1.4-1.4V24.4c0-.8.6-1.4 1.4-1.4h1.1c.5 0 2.4.2 4.3 1.2v-3.8c0-8.6-6.8-16-15.4-16s-15.8 7.2-15.8 16v3.8c2-1 4-1.2 4.4-1.2H10c.8 0 1.4.6 1.4 1.4v14.2c0 .8-.6 1.4-1.4 1.4H8.6C8 40 0 39 0 31.4v-11C0 9.2 9.2 0 20.2 0zm7.1 12.4c.8.8.8 2 0 2.6l-8.5 8.5c-.8.8-2 .8-2.6 0l-3.7-3.7c-.2-.4-.4-.8-.4-1.4 0-.4.2-1 .6-1.4.8-.8 2-.8 2.6 0l2.4 2.2 6.9-6.9c.9-.7 2.1-.7 2.7.1z"/></symbol><symbol viewBox="0 0 40 30" id="cast" xmlns="http://www.w3.org/2000/svg"><path d="M0 19.4c5.9 0 10.7 4.8 10.7 10.6H6.9c0-3.8-3.1-6.9-6.9-6.9v-3.7zm0-7.5c10 0 18.2 8.1 18.2 18.1h-3.8c0-7.9-6.5-14.3-14.4-14.3v-3.8zM36.3 0c2 0 3.7 1.7 3.7 3.8v22.5c0 2.1-1.7 3.8-3.8 3.8H21.9c0-1.3-.1-2.5-.3-3.8h14.6V3.8H3.8v4.8c-1.3-.3-2.5-.5-3.8-.5V3.8C0 1.7 1.7 0 3.8 0h32.5zM.1 26.8c1.7 0 3.1 1.4 3.1 3.1H.9c-.5 0-.8-.4-.8-.8v-2.3zM32.5 7.5v15H20.6c-2.2-6-7-10.7-13.1-12.9V7.5h25z"/></symbol><symbol viewBox="0 0 40 30" id="check" xmlns="http://www.w3.org/2000/svg"><path d="M0 17.4c0-.7.2-1.3.7-1.8 1-1 2.6-1 3.6 0l8.3 8.2L35.6.7c1-1 2.6-1 3.6 0s1 2.6 0 3.6L14.5 29.2c-1 1-2.6 1-3.6 0L.8 19.2c-.5-.5-.8-1.1-.8-1.8"/></symbol><symbol viewBox="0 0 22 40" id="chevron" xmlns="http://www.w3.org/2000/svg"><path d="M16.9 20L.6 3.6C-.2 2.8-.2 1.5.6.7L.7.6c.8-.8 2.1-.8 2.9 0l17.9 18c.8.8.8 2.1 0 2.9l-17.9 18c-.8.8-2.1.8-2.9 0l-.1-.1c-.8-.8-.8-2.1 0-2.9L16.9 20z"/></symbol><symbol viewBox="0 0 35 40" id="chevron-double" xmlns="http://www.w3.org/2000/svg"><path d="M16.9 20L.6 3.6C-.2 2.8-.2 1.5.6.7L.7.6c.8-.8 2.1-.8 2.9 0l17.9 18c.8.8.8 2.1 0 2.9l-17.9 18c-.8.8-2.1.8-2.9 0l-.1-.1c-.8-.8-.8-2.1 0-2.9L16.9 20z"/><path d="M29.9 20L13.6 3.6c-.8-.8-.8-2.1 0-2.9l.1-.1c.8-.8 2.1-.8 2.9 0l17.9 18c.8.8.8 2.1 0 2.9l-17.9 18c-.8.8-2.1.8-2.9 0l-.1-.1c-.8-.8-.8-2.1 0-2.9L29.9 20z"/></symbol><symbol viewBox="0 0 45 45" id="clock" xmlns="http://www.w3.org/2000/svg"><path d="M4.219 22.5c0 10.08 8.201 18.281 18.281 18.281 10.08 0 18.281-8.201 18.281-18.281 0-10.08-8.201-18.281-18.281-18.281-10.08 0-18.281 8.201-18.281 18.281zM0 22.5C0 10.075 10.075 0 22.5 0S45 10.075 45 22.5 34.925 45 22.5 45 0 34.925 0 22.5zm24.605-.393l9.05 5.225a2.105 2.105 0 01.769 2.869 2.107 2.107 0 01-2.871.769L21.45 25.136a.232.232 0 01-.048-.032l-.028-.022a2.649 2.649 0 01-.328-.259 1.018 1.018 0 00-.083-.088l-.04-.045a2.312 2.312 0 01-.137-.17l-.062-.102-.016-.027-.04-.07c-.026-.045-.053-.091-.075-.14a2.834 2.834 0 01-.04-.107l-.028-.072a3.325 3.325 0 01-.06-.198 2.083 2.083 0 01-.034-.2l-.005-.035c-.008-.06-.016-.12-.018-.18 0-.012-.001-.023-.003-.035l-.003-.036V9.775c0-1.154.945-2.1 2.101-2.1 1.157 0 2.102.946 2.102 2.1v12.332z"/></symbol><symbol viewBox="0 0 40 40" id="close" xmlns="http://www.w3.org/2000/svg"><path d="M23.7 20.1L39.3 4.6c1-1 1-2.7 0-3.7s-2.7-1-3.7 0L20 16.4 4.6.8c-1-1-2.7-1-3.7 0s-1 2.7 0 3.7l15.4 15.6L.7 35.5c-1 1-1 2.7 0 3.7s2.7 1 3.7 0L20 23.8l15.4 15.5c1 1 2.7 1 3.7 0s1-2.7 0-3.7L23.7 20.1z"/></symbol><symbol viewBox="0 0 40 32" id="comments" xmlns="http://www.w3.org/2000/svg"><path d="M30 0H10C4.5 0 0 4.5 0 10v5c0 5.5 4.5 10 10 10h11.2c.7 0 1.2.6 1.2 1.3v4.5c0 .7.6 1.3 1.3 1.3.3 0 .6-.1.9-.4l6.4-6.4c.2-.2.4-.3.7-.3 4.8-.8 8.3-5 8.3-9.9v-5C40 4.5 35.5 0 30 0zM18.8 18.8h-10c-.7 0-1.2-.6-1.2-1.3 0-.7.6-1.3 1.2-1.3h10c.7 0 1.2.6 1.2 1.3 0 .7-.6 1.3-1.2 1.3zm12.4-5H8.8c-.7 0-1.2-.6-1.2-1.3 0-.7.6-1.3 1.2-1.3h22.5c.7 0 1.2.6 1.2 1.3 0 .7-.6 1.3-1.3 1.3zm0-5H8.8c-.7 0-1.2-.6-1.2-1.3s.6-1.3 1.2-1.3h22.5c.7 0 1.2.6 1.2 1.3s-.6 1.3-1.3 1.3z"/></symbol><symbol viewBox="0 0 32 40" id="delete" xmlns="http://www.w3.org/2000/svg"><path d="M22.6 3.7h7.5c1 0 1.9.8 1.9 1.9 0 1-.8 1.9-1.9 1.9H1.9C.8 7.5 0 6.6 0 5.6c0-1 .8-1.9 1.9-1.9h7.5l1.2-2.6V1c0-.1.1-.1.1-.2l.1-.1.1-.1.1-.1.1-.1h.2c.1 0 .1-.1.2-.1h.4L12 0H20.6c.1 0 .1.1.2.1h.2l.1.1.1.1.1.1.1.1s.1.1.1.2v.1l1.1 2.9zM3.4 36.2L1.7 10.7h28.5l-1.7 25.6c0 2.1-1.7 3.8-3.8 3.8H7.2c-2.1-.1-3.8-1.8-3.8-3.9z"/></symbol><symbol viewBox="0 0 32 40" id="delete-outline" xmlns="http://www.w3.org/2000/svg"><path d="M22.6 3.7h7.5c1 0 1.9.8 1.9 1.9 0 1-.8 1.9-1.9 1.9H1.9C.8 7.5 0 6.6 0 5.6c0-1 .8-1.9 1.9-1.9h7.5l1.2-2.6V1c0-.1.1-.1.1-.2s.1-.1.1-.1l.1-.1.1-.1.1-.1h.2c.1 0 .1-.1.2-.1h.4L12 0H20.7c.1 0 .1.1.2.1h.2c.1 0 .1.1.1.1l.1.1.1.1.1.1s.1.1.1.2v.1l1 2.9zm-20.9 7h28.5l-1.7 25.6c0 2.1-1.7 3.8-3.8 3.8H7.2c-2.1 0-3.8-1.7-3.8-3.8L1.7 10.7zm23.1 25.5l1.7-21.8h-21l1.7 21.8h17.6z"/></symbol><symbol viewBox="0 0 40 33" id="downloaded" xmlns="http://www.w3.org/2000/svg"><path d="M38.1 29.2c1 0 1.9.8 1.9 1.9 0 1-.8 1.9-1.9 1.9H1.9C.8 32.9 0 32.1 0 31.1c0-1 .8-1.9 1.9-1.9h36.2zM34 .6c.7.7.7 1.9 0 2.7L16.4 20.9c-.4.4-.8.6-1.3.6s-1-.2-1.3-.6L6 13.1c-.7-.7-.7-1.9 0-2.7.7-.7 1.9-.7 2.7 0l6.4 6.4L31.3.6c.7-.8 1.9-.8 2.7 0z"/></symbol><symbol viewBox="0 0 40 30" id="email" xmlns="http://www.w3.org/2000/svg"><path d="M38.8 0H1.2C.6 0 0 .6 0 1.2v27.5c0 .7.6 1.3 1.2 1.3h37.5c.7 0 1.2-.6 1.2-1.2V1.2C40 .6 39.4 0 38.8 0zm-8.1 5l-9.9 8.5c-.5.4-1.2.4-1.6 0L9.3 5h21.4zM5 25V7.9l14.2 12.2c.5.4 1.2.4 1.6 0L35 7.9V25H5z"/></symbol><symbol viewBox="0 0 38 40" id="entrance" xmlns="http://www.w3.org/2000/svg"><path d="M34.4 0C36.3 0 38 1.7 38 3.7v32.6c0 2.1-1.6 3.7-3.6 3.7H14.2c-1.9 0-3.6-1.7-3.6-3.7v-8.8c0-1.1.8-1.9 1.7-1.9h.1c.9.1 1.7.9 1.7 1.9v8.8h20.2V3.7H14.2v8.8c0 1.1-.8 1.9-1.7 1.9s-1.7-.9-1.7-1.9V3.7c0-2.1 1.6-3.7 3.5-3.7h20.1zM21.1 11.3c.7-.6 1.7-.6 2.4.1l6.9 7.2c.7.7.7 2 0 2.6l-6.9 7.2c-.7.7-1.8.7-2.5 0s-.7-2 0-2.6l3.8-4h-23C.8 21.9 0 21 0 20c0-1.1.8-1.9 1.7-1.9h23l-3.8-4c-.7-.7-.7-2 0-2.6l.2-.2z"/></symbol><symbol viewBox="0 0 40 33.1" id="equalizer" xmlns="http://www.w3.org/2000/svg"><path d="M9.6 13.6c1 0 1.9 1.1 1.9 2.3v17.2H0V15.9c0-1.3.8-2.3 1.9-2.3h7.7zM23.9 0c1 0 1.9.9 1.9 1.9v31.2H14.3V1.9c0-1 .8-1.9 1.9-1.9h7.7zM38.1 4.9c1 0 1.9.9 1.9 2v26.2H28.6V6.9c0-1.1.8-2 1.9-2h7.6z"/></symbol><symbol viewBox="0 0 40 40" id="error" xmlns="http://www.w3.org/2000/svg"><path d="M20 0C9 0 0 9 0 20s9 20 20 20 20-9 20-20S31 0 20 0zm9.7 26.2c.5.5.5 1.3 0 1.8L28 29.7c-.5.5-1.3.5-1.8 0L20 23.5l-6.2 6.2c-.5.5-1.3.5-1.8 0L10.3 28c-.5-.5-.5-1.3 0-1.8l6.2-6.2-6.2-6.2c-.5-.5-.5-1.3 0-1.8l1.8-1.8c.5-.5 1.3-.5 1.8 0l6.2 6.2 6.2-6.2c.5-.5 1.3-.5 1.8 0l1.8 1.8c.5.5.5 1.3 0 1.8L23.5 20l6.2 6.2z"/></symbol><symbol viewBox="0 0 40 40" id="exit" xmlns="http://www.w3.org/2000/svg"><path d="M22.9 0c2.1 0 3.8 1.7 3.8 3.8v3.8c0 1-.8 1.9-1.9 1.9h-.1c-1-.1-1.7-.9-1.7-1.9V3.8H3.8v32.5H23v-3.8c0-1 .8-1.9 1.9-1.9s1.9.8 1.9 1.9v3.8c0 2-1.7 3.7-3.8 3.7H3.8C1.7 40 0 38.3 0 36.2V3.8C0 1.7 1.7 0 3.8 0h19.1zm6.8 11.4c.7-.7 1.9-.7 2.6 0l7.2 7.2c.7.7.7 1.9 0 2.6l-7.2 7.2c-.7.7-1.9.7-2.6 0-.7-.7-.7-1.9 0-2.6l4-4H9.4c-1 0-1.9-.8-1.9-1.9 0-1 .8-1.9 1.9-1.9h24.3l-4-4c-.8-.6-.8-1.8 0-2.6z"/></symbol><symbol viewBox="0 0 40 40" id="external" xmlns="http://www.w3.org/2000/svg"><path d="M22.5 1.3v2.5c0 .7.6 1.2 1.2 1.2h7.7L20.2 16.2c-.5.5-.5 1.3 0 1.8l1.8 1.8c.5.5 1.3.5 1.8 0L35 8.5v7.7c0 .7.6 1.2 1.2 1.2h2.5c.7 0 1.2-.6 1.2-1.2v-15C40 .6 39.4 0 38.8 0h-15c-.7 0-1.3.6-1.3 1.3z"/><path d="M30 20v13.8c0 .7-.6 1.2-1.2 1.2H6.2c-.6 0-1.2-.6-1.2-1.2V11.2c0-.6.6-1.2 1.2-1.2H20V5H1.2C.6 5 0 5.6 0 6.2v32.5c0 .7.6 1.3 1.2 1.3h32.5c.7 0 1.2-.6 1.2-1.2V20H30z"/></symbol><symbol viewBox="0 0 20 40" id="facebook" xmlns="http://www.w3.org/2000/svg"><path d="M20 6.6h-3.6C13.6 6.6 13 8 13 10.1v4.5h6.8l-.9 7.1H13V40H5.9V21.8H0v-7.1h5.9V9.4C5.9 3.3 9.5 0 14.7 0c2.5 0 4.7.2 5.3.3v6.3z"/></symbol><symbol viewBox="0 0 40 40" id="file-download" xmlns="http://www.w3.org/2000/svg"><path d="M38.1 36.2c1 0 1.9.8 1.9 1.9 0 1-.8 1.9-1.9 1.9H1.9c-1 0-1.9-.8-1.9-1.9 0-1 .8-1.9 1.9-1.9h36.2zM20.1 0c1 0 1.8.8 2 1.8v24.1l4-4c.6-.8 1.8-.8 2.6 0l.1.1c.5.8.5 1.9-.1 2.5l-7.2 7.2c-.6.8-1.8.8-2.6 0l-7.2-7.2c-.8-.6-.8-1.8 0-2.6.6-.8 1.8-.8 2.6 0l4 4V1.8c0-1 .8-1.8 1.8-1.8z"/></symbol><symbol viewBox="0 0 40 40" id="filter" xmlns="http://www.w3.org/2000/svg"><path d="M21.4 36.3h.1V22.7c0-.4.1-.8.4-1.2L36.3 3.8v-.1H3.7v.1L18 21.5c.3.3.4.7.4 1.2v10.5l3 3.1zm.9 3.7h-1.1c-.8 0-1.5-.3-2.1-.8l-.1-.1-3.4-3.5-.1-.1c-.5-.5-.7-1.2-.7-1.9V23.3L.8 6.2c-.1-.1-.2-.3-.3-.4C.2 5.3 0 4.7 0 4.1V3c0-1.6 1.3-3 3-3h34c1.6 0 3 1.3 3 3v1.1c0 .6-.2 1.3-.6 1.8-.1.1-.1.2-.2.3L25.3 23.3V37c0 1.7-1.4 3-3 3z"/></symbol><symbol viewBox="0 0 40 40" id="gem" xmlns="http://www.w3.org/2000/svg"><path d="M12.8 20c0-4 3.2-7.2 7.2-7.2s7.2 3.2 7.2 7.2-3.2 7.2-7.2 7.2-7.2-3.2-7.2-7.2zM11.8 27.2c-4 0-7.2-3.2-7.2-7.2s3.2-7.2 7.2-7.2v14.4zM28.2 35v-6.8H35c0 3.8-3 6.8-6.8 6.8zM11.8 5v6.8H5C5 8 8 5 11.8 5zM11.8 35v-6.8H5C5 32 8 35 11.8 35zM36.5 26.1V13.8c3.4 2 4.5 6.4 2.5 9.8-.6 1.1-1.5 1.9-2.5 2.5zM13.9 3.5h12.3C24.9 1.3 22.5 0 20 0s-4.8 1.3-6.1 3.5zM26 36.5H13.8c2 3.4 6.4 4.5 9.8 2.5 1-.6 1.8-1.5 2.4-2.5zM27.2 28.2c0 4-3.2 7.2-7.2 7.2s-7.2-3.2-7.2-7.2h14.4zM28.2 27.2c4 0 7.2-3.2 7.2-7.2s-3.2-7.2-7.2-7.2v14.4zM27.2 11.8c0-4-3.2-7.2-7.2-7.2s-7.2 3.2-7.2 7.2h14.4zM3.5 26.1V13.8C1.3 15.1 0 17.5 0 20s1.3 4.8 3.5 6.1zM35 11.8h-6.8V5C32 5 35 8 35 11.8z"/></symbol><symbol viewBox="0 0 40 40" id="headset" xmlns="http://www.w3.org/2000/svg"><path d="M40 31.4v-11C40 9.3 31.2 0 20.2 0S0 9.3 0 20.4v11.1C0 39.1 7.9 40 8.7 40H10c.7 0 1.3-.6 1.3-1.3V24.4c0-.7-.6-1.3-1.3-1.3H8.7c-.3 0-2.3.2-4.3 1.3v-3.9c0-8.7 7.2-16 15.9-16 8.6 0 15.5 7.3 15.5 16v3.9c-2-1-4-1.3-4.3-1.3H30c-.7 0-1.3.6-1.3 1.3v14.3c0 .7.6 1.3 1.3 1.3h1.3c.7 0 8.7-1 8.7-8.5v-.1"/></symbol><symbol viewBox="0 0 40 40" id="heart" xmlns="http://www.w3.org/2000/svg"><path d="M20 37.7c-.8 0-1.5-.3-2.1-.8-1.5-1.2-2.8-2.3-4.1-3.4-3.6-2.9-6.8-5.5-9-8-2.7-3.1-4-6-4-9.2 0-3 1.1-5.8 3.1-7.9 2.1-2.3 5-3.5 8.2-3.5 3.1 0 5.9 1.2 8 3.5 2.2-2.3 4.9-3.5 8-3.5.8 0 1.6.1 2.3.2 2.3.5 4.3 1.6 5.9 3.3 2 2.1 3.1 4.9 3.1 7.9 0 5.2-3.3 8.9-7 12.2-1.8 1.6-3.8 3.2-6.1 5.1l-.1.1c-1.3 1-2.6 2.1-4 3.3-.6.4-1.4.7-2.2.7z"/></symbol><symbol viewBox="0 0 40 40" id="heart-outline" xmlns="http://www.w3.org/2000/svg"><path d="M12.003 7.992c-2.25 0-4.306.876-5.788 2.464-1.436 1.54-2.23 3.614-2.23 5.84 0 2.441 1.031 4.735 3.24 7.219 2.079 2.332 5.128 4.787 8.66 7.628 1.33 1.071 2.707 2.18 4.17 3.39a233.188 233.188 0 014.048-3.31l.099-.08c2.288-1.842 4.262-3.431 5.956-4.955 3.085-2.777 5.943-5.897 5.943-9.892 0-2.226-.793-4.3-2.23-5.842a7.717 7.717 0 00-4.134-2.3 8.49 8.49 0 00-1.656-.162c-2.525 0-4.645 1.116-6.292 3.316-.13.17-.246.337-.36.507l-1.387 2.087-1.386-2.087a11.08 11.08 0 00-.358-.51c-1.651-2.197-3.767-3.313-6.295-3.313zm8.04 29.664a3.354 3.354 0 01-2.136-.76c-1.452-1.2-2.817-2.3-4.138-3.361-3.645-2.932-6.792-5.464-9.045-7.994-2.744-3.081-4.02-6.02-4.02-9.245 0-2.993 1.087-5.807 3.06-7.92 2.113-2.266 5.04-3.51 8.24-3.51 3.128 0 5.882 1.209 8.038 3.515 2.157-2.306 4.91-3.516 8.04-3.516.786 0 1.572.078 2.331.229a10.994 10.994 0 015.908 3.28c1.975 2.115 3.06 4.929 3.06 7.922 0 5.181-3.35 8.911-6.972 12.17-1.76 1.582-3.767 3.195-6.087 5.065l-.101.083a363.663 363.663 0 00-4.042 3.282 3.363 3.363 0 01-2.137.76z"/></symbol><symbol viewBox="0 0 40 40" id="heart-outline-decorated" xmlns="http://www.w3.org/2000/svg"><path d="M.479 8.52a6.701 6.701 0 1113.402 0 6.701 6.701 0 01-13.402 0z" fill="#f8faf8" opacity=".202"/><path d="M14.471 7.591c-2.058 0-3.938.85-5.293 2.392-1.313 1.494-2.038 3.508-2.038 5.669 0 2.37.942 4.596 2.962 7.007 1.9 2.265 4.69 4.647 7.918 7.405 1.217 1.04 2.476 2.116 3.815 3.29a216.134 216.134 0 013.701-3.213l.09-.076c2.092-1.789 3.898-3.332 5.447-4.81 2.82-2.696 5.434-5.725 5.434-9.603 0-2.16-.725-4.175-2.039-5.671a6.959 6.959 0 00-5.294-2.39c-2.31 0-4.248 1.083-5.755 3.219a10.01 10.01 0 00-.329.492l-1.267 2.026-1.268-2.026c-.103-.165-.21-.328-.328-.494-1.51-2.134-3.444-3.217-5.756-3.217zm7.352 28.796a2.959 2.959 0 01-1.953-.738 360.36 360.36 0 00-3.784-3.263c-3.334-2.846-6.21-5.304-8.271-7.76-2.51-2.99-3.676-5.844-3.676-8.974 0-2.905.993-5.637 2.797-7.688 1.933-2.2 4.61-3.408 7.535-3.408 2.862 0 5.38 1.174 7.352 3.413 1.971-2.24 4.49-3.413 7.35-3.413a9.914 9.914 0 017.535 3.406c1.806 2.053 2.798 4.784 2.798 7.69 0 5.03-3.062 8.65-6.375 11.813-1.609 1.536-3.444 3.102-5.567 4.918l-.091.08a339.107 339.107 0 00-3.697 3.186 2.967 2.967 0 01-1.953.738z"/></symbol><symbol viewBox="0 0 33 32" id="help" xmlns="http://www.w3.org/2000/svg"><path fill-rule="evenodd" clip-rule="evenodd" d="M21.898 13.518c-.184.519-.504 1.036-.965 1.554-.46.517-1.123 1.069-1.99 1.653-.402.267-.618.659-.652 1.176l-.05.677c-.02.547-.446.995-.993.995h-.995c-.547 0-.931-.456-.992-.995h.002l-.128-1.378c-.1-1.117.267-1.97 1.104-2.555.75-.533 1.243-.992 1.476-1.376.234-.384.35-.717.35-1.002 0-.384-.158-.723-.474-1.014-.319-.293-.778-.439-1.38-.439a3.33 3.33 0 00-1.625.412c-.183.1-.743.523-.743.523a1.16 1.16 0 01-1.624-.181l-.721-.9a1.159 1.159 0 01.179-1.623l.454-.363.002-.002c.408-.288.85-.55 1.326-.784a7.277 7.277 0 013.255-.763c1.085 0 2.037.2 2.854.601.82.4 1.456.954 1.915 1.666.46.709.69 1.531.69 2.466 0 .584-.093 1.136-.275 1.652zm-3.974 10.936c-.373.372-.848.56-1.424.56s-1.051-.188-1.424-.56c-.373-.37-.558-.833-.558-1.38 0-.564.185-1.028.558-1.394.373-.365.848-.547 1.424-.547s1.051.182 1.424.547c.373.366.558.83.558 1.394 0 .547-.185 1.01-.558 1.38zM16.5 0C7.663 0 .5 7.162.5 16c0 8.835 7.163 16 16 16 8.835 0 16-7.165 16-16 0-8.838-7.165-16-16-16z"/></symbol><symbol viewBox="0 0 40 40" id="home" xmlns="http://www.w3.org/2000/svg"><path d="M39.3 16.1L21.5.5s-.1 0-.1-.1c-.1-.1-.3-.2-.5-.3-.1 0-.2-.1-.2-.1-.2.1-.3.1-.5.1h-.3c-.1 0-.2.1-.4.1-.1 0-.2.1-.4.2 0 0-.1 0-.2.1L.7 16.2c-.8.7-.9 1.9-.3 2.7.4.5.9.7 1.5.7.4 0 .9-.1 1.2-.4l1.1-.9V38c0 .5.2 1 .6 1.4.4.4.8.6 1.4.6h8.7V25.2c0-.5.2-.9.5-1.2.3-.3.7-.5 1.1-.5h6.9c.7 0 1.2.4 1.5 1 .1.2.1.4.1.6V40h8.7c.5 0 1-.2 1.4-.6.4-.4.6-.8.6-1.4V18.2l1.1.9c.4.3.8.5 1.2.5.5 0 1.1-.2 1.5-.7.7-.8.6-2.1-.2-2.8"/></symbol><symbol viewBox="0 0 15 40" id="info" xmlns="http://www.w3.org/2000/svg"><path d="M13.8 35c.7 0 1.2.6 1.2 1.2V40H0v-3.8c0-.6.6-1.2 1.2-1.2h1.2c.7 0 1.2-.6 1.2-1.2V16.2H1.2C.6 16.2 0 15.7 0 15v-2.5c0-.7.6-1.2 1.2-1.2H10c.7 0 1.2.6 1.2 1.2v21.2c0 .7.6 1.2 1.2 1.2h1.4zM11.2 3.8C11.2 1.7 9.6 0 7.5 0S3.8 1.7 3.8 3.8c0 2.1 1.7 3.8 3.8 3.8 2-.1 3.6-1.8 3.6-3.8z"/></symbol><symbol viewBox="0 0 20 20" id="info2" xmlns="http://www.w3.org/2000/svg"><path fill-rule="evenodd" clip-rule="evenodd" d="M12.057 15.288a.35.35 0 01-.349.349H8.292a.35.35 0 01-.348-.349v-.699a.35.35 0 01.348-.349h.661V8.76h-.661a.35.35 0 01-.348-.349v-.43a.35.35 0 01.348-.349H10.7a.35.35 0 01.348.349v6.259h.66a.35.35 0 01.349.349v.699zM9.996 4.427a1.04 1.04 0 110 2.083 1.042 1.042 0 110-2.083zM10 0C4.478 0 0 4.477 0 10s4.478 10 10 10c5.523 0 10-4.477 10-10S15.523 0 10 0z"/></symbol><symbol viewBox="0 0 40 40" id="instagram" xmlns="http://www.w3.org/2000/svg"><path d="M36.4 3.6C34.2 1.3 31.1 0 27.8 0H12.2C5.5 0 0 5.5 0 12.2v15.7C0 34.5 5.5 40 12.2 40h15.7C34.5 40 40 34.5 40 27.8V12.2c0-3.3-1.3-6.4-3.6-8.6zm-.7 24.2c0 4.3-3.5 7.8-7.8 7.8H12.2c-4.3 0-7.8-3.5-7.8-7.8V12.2c0-4.3 3.5-7.8 7.8-7.8h15.7c4.3 0 7.8 3.5 7.8 7.8v15.6zM20 9.6C14.2 9.6 9.6 14.2 9.6 20S14.2 30.4 20 30.4 30.4 25.8 30.4 20 25.8 9.6 20 9.6zm0 16.5c-3.4 0-6.1-2.7-6.1-6.1s2.7-6.1 6.1-6.1 6.1 2.7 6.1 6.1c0 3.4-2.7 6.1-6.1 6.1zm11.7-15.9c0 1.1-.9 2-2 2s-2-.9-2-2 .9-2 2-2 2 .9 2 2z"/></symbol><symbol viewBox="0 0 40 38" id="linkedin" xmlns="http://www.w3.org/2000/svg"><path d="M4.8 8.9c-3 0-4.8-2-4.8-4.5S1.9 0 4.8 0s4.8 1.9 4.8 4.4c.1 2.5-1.8 4.5-4.8 4.5zM9.1 38H.5V12.3h8.6V38zM40 38h-8.6V24.3c0-3.4-1.2-5.8-4.3-5.8-2.4 0-3.8 1.6-4.4 3.1-.2.6-.3 1.3-.3 2.1V38h-8.6c.1-23.2 0-25.7 0-25.7h8.6V16h-.1c1.1-1.8 3.2-4.3 7.8-4.3 5.7 0 9.9 3.7 9.9 11.5V38z"/></symbol><symbol viewBox="0 0 40 31" id="live" xmlns="http://www.w3.org/2000/svg"><path d="M9.6.7c.7.8.6 2-.2 2.7C5.8 6.5 3.8 11 3.8 15.6s2 9.1 5.5 12.1c.8.7.9 1.9.2 2.7-.4.4-.9.6-1.4.6-.4 0-.9-.2-1.2-.5-4.4-3.9-6.9-9.3-6.9-15C0 9.7 2.5 4.3 6.9.5c.8-.7 2-.6 2.7.2zM33.1.5c4.4 3.8 6.9 9.2 6.9 15 0 5.7-2.5 11.1-6.8 14.9-.4.3-.8.5-1.2.5-.5 0-1-.2-1.4-.6-.7-.8-.6-2 .2-2.7 3.5-3.1 5.5-7.5 5.5-12.1s-2.1-9.2-5.6-12.2c-.8-.7-.9-1.9-.2-2.6.6-.8 1.8-.9 2.6-.2zM14.9 5.9c.6.8.5 2-.3 2.6-2.1 1.7-3.4 4.2-3.4 6.9s1.2 5.2 3.3 6.9c.8.6.9 1.8.3 2.6-.4.5-.9.7-1.5.7-.4 0-.8-.1-1.2-.4-3-2.4-4.7-6-4.7-9.7 0-3.9 1.8-7.5 4.8-9.8.9-.7 2-.6 2.7.2zm12.8-.3c3.1 2.4 4.8 6 4.8 9.8 0 3.8-1.7 7.4-4.7 9.7-.3.3-.8.4-1.2.4-.5 0-1.1-.2-1.5-.7-.7-.8-.5-2 .3-2.6 2.1-1.7 3.3-4.2 3.3-6.9s-1.2-5.3-3.4-6.9c-.8-.4-1-1.6-.3-2.4.7-.9 1.9-1.1 2.7-.4zM20 11c2.4 0 4.4 2 4.4 4.4s-2 4.4-4.4 4.4-4.4-2-4.4-4.4 2-4.4 4.4-4.4z"/></symbol><symbol viewBox="0 0 100 28" id="loading-media" xmlns="http://www.w3.org/2000/svg"><circle cx="14" cy="14" r="14"/><circle cx="50" cy="14" r="14"/><circle cx="86" cy="14" r="14"/></symbol><symbol viewBox="0 0 31 40" id="location" xmlns="http://www.w3.org/2000/svg"><path d="M15.3 20.9c-3.6 0-6.5-2.9-6.5-6.5S11.7 8 15.4 8c3.5 0 6.5 2.9 6.5 6.4 0 3.5-3 6.5-6.6 6.5M31 14.6C30.5 7.4 24.5 0 15.5 0 6.4 0 .5 7.5 0 14.7c-.2 3.8 1 7.5 3.3 10.5l10.7 14c.4.5.9.7 1.5.7s1.1-.3 1.5-.7l10.6-14.1c2.4-2.8 3.6-6.7 3.4-10.5"/></symbol><symbol viewBox="0 0 10 40" id="more" xmlns="http://www.w3.org/2000/svg"><path d="M5 10c2.8 0 5-2.2 5-5S7.8 0 5 0 0 2.2 0 5s2.2 5 5 5zm0 5c-2.8 0-5 2.2-5 5s2.2 5 5 5 5-2.2 5-5-2.2-5-5-5zm0 15c-2.8 0-5 2.2-5 5s2.2 5 5 5 5-2.2 5-5-2.2-5-5-5z"/></symbol><symbol viewBox="0 0 40 40" id="news-paper" xmlns="http://www.w3.org/2000/svg"><path d="M36.2.1C38.3.1 40 1.8 40 3.9v32.3c0 2.1-1.7 3.8-3.8 3.8H3.8C1.7 40 0 38.3 0 36.2V3.8C0 1.7 1.7 0 3.8 0l32.4.1zm0 3.7H3.8v32.3h32.5l-.1-32.3zm-5 26.2c.7 0 1.2.6 1.2 1.2 0 .7-.6 1.3-1.2 1.3H8.8c-.7 0-1.2-.6-1.2-1.3 0-.7.6-1.2 1.2-1.2h22.4zm0-6.2c.7 0 1.2.6 1.2 1.2s-.6 1.3-1.2 1.3H19.4c-.7 0-1.2-.6-1.2-1.3 0-.7.6-1.2 1.2-1.2h11.8zm-16.8-5.1c.7 0 1.2.6 1.2 1.2v5c0 .7-.6 1.2-1.2 1.2H8.7c-.7 0-1.2-.6-1.2-1.2v-5c0-.7.6-1.2 1.2-1.2h5.7zm16.8 0c.7 0 1.2.6 1.2 1.2 0 .7-.6 1.3-1.2 1.3H19.4c-.7 0-1.2-.6-1.2-1.3 0-.7.6-1.2 1.2-1.2h11.8zm0-11.1c.7 0 1.2.6 1.2 1.2v5c0 .7-.6 1.2-1.2 1.2H8.8c-.7 0-1.2-.6-1.2-1.2v-5c-.1-.6.5-1.2 1.2-1.2h22.4z"/></symbol><symbol viewBox="0 0 40 40" id="night-mode" xmlns="http://www.w3.org/2000/svg"><path d="M20 0C9 0 0 9 0 20s9 20 20 20 20-9 20-20S31 0 20 0zm11.3 31.3c-5.3 5.3-13.5 6.1-19.7 2.3l22-22c3.8 6.2 3.1 14.4-2.3 19.7z"/></symbol><symbol viewBox="0 0 67 67" id="no-search-result" xmlns="http://www.w3.org/2000/svg"><path d="M33.5 0C52 0 67 15 67 33.5S52 67 33.5 67 0 52 0 33.5 15 0 33.5 0zm0 6.3c-15 0-27.2 12.2-27.2 27.2s12.2 27.2 27.2 27.2 27.2-12.2 27.2-27.2S48.5 6.3 33.5 6.3zm0 36.4c1.1 0 2.1.4 2.8 1.1.7.7 1.1 1.6 1.1 2.8 0 1.1-.4 2-1.1 2.7-.7.7-1.7 1.1-2.8 1.1-1.1 0-2.1-.4-2.8-1.1-.7-.7-1.1-1.6-1.1-2.7s.4-2 1.1-2.8c.7-.7 1.7-1.1 2.8-1.1zm4.3-26.1v8.6l-1.4 12.4c0 1.1-.9 2-2 2h-2c-1.1 0-2-.9-2-2L29 25.2v-8.6h8.8z"/></symbol><symbol viewBox="0 0 32 40" id="notifications-outline" xmlns="http://www.w3.org/2000/svg"><path d="M13.4 2.7C13.4 1.2 14.6 0 16 0c1.4 0 2.6 1.2 2.6 2.7V5c5.7 1.2 10.8 7.6 10.8 13.9l1 8.6c1 .5 1.7 1.6 1.7 2.8V31.2c0 .7-.5 1.3-1.2 1.3H1.2c-.7 0-1.2-.6-1.2-1.3v-.9c0-1.3.7-2.3 1.7-2.9l1-8.6c0-6.3 5.1-12.6 10.8-13.9V2.7zm12.3 16.1c0-4.4-4.2-10.6-9.8-10.6-5.6 0-9.7 6.2-9.7 10.6l-1 9.1-.1.8h21.6l-.1-.8-.9-9.1zm-5.2 16.5c0 2.6-2 4.7-4.5 4.7s-4.5-2.1-4.5-4.7h9z"/></symbol><symbol viewBox="0 0 40 40" id="pause" xmlns="http://www.w3.org/2000/svg"><path d="M11.7 0c2.1 0 3.8 1.7 3.8 3.8v32.4c0 2.1-1.7 3.8-3.8 3.8H3.8C1.7 40 0 38.3 0 36.2V3.8C0 1.7 1.7 0 3.8 0h7.9zm24.5 0C38.3 0 40 1.7 40 3.8v32.4c0 2.1-1.7 3.8-3.8 3.8h-7.9c-2.1 0-3.8-1.7-3.8-3.8V3.8c0-2.1 1.7-3.8 3.8-3.8h7.9z"/></symbol><symbol viewBox="0 0 40 40" id="play" xmlns="http://www.w3.org/2000/svg"><path d="M0 1.4v37.1c0 .5.3 1 .7 1.2.4.3 1 .3 1.4.1l37.1-18.6c.5-.2.8-.7.8-1.2s-.3-1-.8-1.3L2.1.2c-.5-.3-1-.2-1.4 0S0 .9 0 1.4z"/></symbol><symbol viewBox="0 0 40 40" id="play-full" xmlns="http://www.w3.org/2000/svg"><path d="M20 0c11.1 0 20 8.9 20 20s-8.9 20-20 20S0 31.1 0 20 8.9 0 20 0zm-2.8 11.2c-.5 0-.9.2-1.2.6-.2.2-.3.6-.3 1v14.3c0 .4.2.8.3 1 .2.3.8.6 1.2.6.3 0 .8-.2 1-.3l8.8-7.2c.3-.2.6-.8.6-1.2s-.2-.9-.6-1.2l-8.8-7.2c-.2-.3-.5-.4-1-.4z"/></symbol><symbol viewBox="0 0 40 27" id="playlist" xmlns="http://www.w3.org/2000/svg"><path d="M38.1 23.2c1 0 1.9.8 1.9 1.9 0 1-.8 1.9-1.9 1.9H1.9c-1 0-1.9-.8-1.9-1.9 0-1 .8-1.9 1.9-1.9h36.2zM1.4 0c.3 0 .6.1.8.3L10 6.7c.3.3.5.6.5 1.1s-.2.8-.5 1l-7.8 6.4c-.2.2-.5.3-.9.3S.5 15.3.2 15c-.1-.2-.2-.6-.2-.9V1.4C0 1.1.1.8.3.5.6.2.9 0 1.4 0zm36.7 11.6c1 0 1.9.8 1.9 1.9 0 1-.8 1.9-1.9 1.9H16.8c-1 0-1.9-.8-1.9-1.9 0-1 .8-1.9 1.9-1.9h21.3zm0-11.6c1 0 1.9.8 1.9 1.9s-.8 1.9-1.9 1.9H16.8c-1 0-1.9-.8-1.9-1.9S15.7 0 16.8 0h21.3z"/></symbol><symbol viewBox="0 0 40 40" id="playlist-add" xmlns="http://www.w3.org/2000/svg"><path d="M20.2 0C31.2 0 40 9.2 40 20.4v11c0 7.6-8 8.6-8.6 8.6H30c-.8 0-1.4-.6-1.4-1.4V24.4c0-.8.6-1.4 1.4-1.4h1.1c.5 0 2.4.2 4.3 1.2v-3.8c0-8.6-6.8-16-15.4-16s-15.8 7.2-15.8 16v3.8c2-1 4-1.2 4.4-1.2H10c.8 0 1.4.6 1.4 1.4v14.2c0 .8-.6 1.4-1.4 1.4H8.6C8 40 0 39 0 31.4v-11C0 9.2 9.2 0 20.2 0zm5.6 15h-12c-1 0-1.8.8-1.8 1.8s.8 1.8 1.8 1.8h12c1 0 1.8-.8 1.8-1.8s-.8-1.8-1.8-1.8zm-4.2 7.8v-12c0-1-.8-1.8-1.8-1.8s-1.8.8-1.8 1.8v12c0 1 .8 1.8 1.8 1.8s1.8-.8 1.8-1.8z"/></symbol><symbol viewBox="0 0 40 40" id="playlist-remove" xmlns="http://www.w3.org/2000/svg"><path d="M40 20.4v11c0 7.6-8 8.6-8.6 8.6H30c-.8 0-1.4-.6-1.4-1.4V24.4c0-.8.6-1.4 1.4-1.4h1.1c.5 0 2.4.2 4.3 1.2v-3.8c0-8.6-6.8-16-15.4-16s-15.8 7.2-15.8 16v3.8c2-1 4-1.2 4.4-1.2H10c.8 0 1.4.6 1.4 1.4v14.2c0 .8-.6 1.4-1.4 1.4H8.6C8 40 0 39 0 31.4v-11C0 9.2 9.2 0 20.2 0S40 9.2 40 20.4zM25.8 15h-12c-1 0-1.8.8-1.8 1.8s.8 1.8 1.8 1.8h12c1 0 1.8-.8 1.8-1.8s-.8-1.8-1.8-1.8z"/></symbol><symbol viewBox="0 0 40 40" id="podcast" xmlns="http://www.w3.org/2000/svg"><path d="M21.9 26.6c.7 0 1.2.6 1.2 1.2l-1.3 11c0 .7-.6 1.2-1.2 1.2h-1.2c-.7 0-1.2-.6-1.2-1.2l-1.3-11c0-.7.6-1.2 1.2-1.2h3.8zM20 0c11 0 20 9 20 20.1 0 9.3-6.4 17.2-15.1 19.4 0-.1 0-.2.1-.4l.4-3.7c6.3-2.2 10.8-8.2 10.8-15.3C36.2 11 29 3.8 20 3.8S3.8 11 3.8 20.1c0 7.1 4.5 13.1 10.8 15.3l.4 3.7c0 .1 0 .3.1.4C6.4 37.3 0 29.4 0 20.1 0 9 9 0 20 0zm0 7.6c6.9 0 12.4 5.6 12.4 12.4 0 4.7-2.6 8.8-6.5 10.9l.3-2.8V27.8c0-.5-.1-1-.3-1.5 1.7-1.6 2.7-3.8 2.7-6.3 0-4.8-3.9-8.7-8.7-8.7s-8.7 3.9-8.7 8.7c0 2.5 1 4.7 2.7 6.3-.2.5-.3 1-.3 1.5v.5l.3 2.8C10 29 7.4 24.9 7.4 20.2 7.6 13.1 13.1 7.6 20 7.6zm0 7.5c2.7 0 4.9 2.2 4.9 4.9s-2.2 5-4.9 5-4.9-2.2-4.9-4.9 2.2-5 4.9-5z"/></symbol><symbol viewBox="0 0 40 38" id="print" xmlns="http://www.w3.org/2000/svg"><path d="M10 26.6c0-.7.6-1.3 1.2-1.3h17.5c.7 0 1.2.6 1.2 1.3s-.6 1.3-1.2 1.3H11.2c-.6 0-1.2-.6-1.2-1.3zm1.2 6.3h17.5c.7 0 1.2-.6 1.2-1.3s-.6-1.3-1.2-1.3H11.2c-.7 0-1.2.6-1.2 1.3s.6 1.3 1.2 1.3zM32.5 5.1c0-2.8-2.2-5.1-5-5.1h-15c-2.8 0-5 2.3-5 5.1v3.8h25V5.1zm7.5 7.6v15.2c0 .7-.6 1.3-1.2 1.3H35v7.6c0 .7-.6 1.3-1.2 1.3H6.2C5.6 38 5 37.4 5 36.7v-7.6H1.2c-.7 0-1.2-.6-1.2-1.3V12.7c0-.7.6-1.3 1.2-1.3h37.5c.7 0 1.3.6 1.3 1.3zm-7.5 10.1h-25v11.4c0 .7.6 1.3 1.2 1.3h22.5c.7 0 1.2-.6 1.2-1.3V22.8zm0-5.7c0-1-.8-1.9-1.9-1.9s-1.9.9-1.9 1.9.8 1.9 1.9 1.9 1.9-.9 1.9-1.9z"/></symbol><symbol viewBox="0 0 27 32" id="privacy" xmlns="http://www.w3.org/2000/svg"><path fill-rule="evenodd" clip-rule="evenodd" d="M18.3 11.198a4.8 4.8 0 11-9.6.001 4.8 4.8 0 019.6 0zm3.2 9.33c0 1.034-.804 1.874-1.8 1.874H7.3c-.993 0-1.8-.84-1.8-1.875 0-1.097.727-2.05 1.754-2.3l2.024-.493a4.589 4.589 0 012.35.043c.596.167 1.22.252 1.876.252.651 0 1.27-.084 1.854-.25a4.614 4.614 0 012.352-.045l2.037.494c1.027.249 1.754 1.202 1.754 2.3zM.7 4.79v10.925a16.003 16.003 0 008.84 14.309L13.489 32l3.961-1.98a15.999 15.999 0 008.85-14.313V4.79L13.513 0 .7 4.79z"/></symbol><symbol viewBox="0 0 40 38" id="profile" xmlns="http://www.w3.org/2000/svg"><path d="M12.5 23.2c2.2 1.4 4.7 2.3 7.5 2.3 2.7 0 5.3-.8 7.4-2.3 4 1.1 8 2.7 9.9 3.9 2.2 1.4 3.2 4.1 2.4 6.6-.7 2.6-3 4.3-5.6 4.3H5.9C3.3 38 1 36.3.2 33.8c-.7-2.5.3-5.2 2.5-6.6 1.9-1.4 5.9-2.9 9.8-4zM20 0c5.8 0 10.5 5 10.5 11.1S25.8 22.2 20 22.2s-10.5-5-10.5-11.1S14.2 0 20 0z"/></symbol><symbol viewBox="0 0 40 40" id="resume" xmlns="http://www.w3.org/2000/svg"><path d="M35.31 19.976c0 8.429-6.862 15.262-15.325 15.262-8.464 0-15.325-6.833-15.325-15.262H.83c0 10.536 8.576 19.077 19.156 19.077 10.58 0 19.155-8.541 19.155-19.077C39.14 9.44 30.564.9 19.985.9v3.816c8.463 0 15.324 6.833 15.324 15.261zm-18.534 6.506l9.81-4.747c.401-.194.722-.539.902-.97.408-.974.003-2.118-.903-2.556l-9.81-4.74a1.695 1.695 0 00-.738-.17c-.993 0-1.8.866-1.8 1.934v9.486c0 .274.055.545.16.794.408.974 1.473 1.408 2.38.97z"/><path d="M19.985.9v3.815c-8.464 0-15.325 6.833-15.325 15.261H.83C.829 9.44 9.405.9 19.985.9z" opacity=".2"/></symbol><symbol viewBox="0 0 40 40" id="search" xmlns="http://www.w3.org/2000/svg"><path d="M7.1 23.4C2.6 19 2.6 11.7 7.1 7.2c2.2-2.2 5.1-3.4 8.1-3.4 3.1 0 6 1.2 8.1 3.4 4.5 4.5 4.5 11.8 0 16.3-2.2 2.2-5.1 3.4-8.1 3.4s-5.9-1.3-8.1-3.5m32 11.6L28 23.8l-.1-.1c4-5.9 3.4-14.1-1.9-19.3C23 1.5 19.1 0 15.2 0S7.4 1.6 4.5 4.6c-6 6-6 15.6 0 21.5 3 3 6.9 4.5 10.8 4.5 3 0 6-.9 8.5-2.6l.1.1 11.1 11c.6.6 1.3.9 2.1.9.7 0 1.5-.3 2.1-.9 1.1-1.1 1.1-2.9-.1-4.1"/></symbol><symbol viewBox="0 0 40 40" id="settings" xmlns="http://www.w3.org/2000/svg"><path d="M20 28.1c-4.5 0-8.2-3.7-8.2-8.2s3.7-8.2 8.2-8.2c4.5 0 8.2 3.7 8.2 8.2s-3.7 8.2-8.2 8.2m18.9-11.7c-1.3-.3-2.7-.7-4-1-.2-.1-.4-.1-.4-.4-.2-.6-.5-1.1-.7-1.7-.1-.2 0-.4 0-.5.7-1.1 1.3-2.2 2-3.4.4-.7.4-1.2-.2-1.8l-3-3c-.6-.6-1.1-.7-1.8-.2-1.1.6-2.1 1.3-3.2 1.9-.1.1-.4.1-.5 0L25 5.4c-.2-.1-.3-.2-.4-.5-.3-1.4-.7-2.7-1-4.1-.3-.6-.6-.9-1.5-.9h-4.3c-.8 0-1.2.3-1.4 1.1-.3 1.3-.7 2.7-1 4.1-.1.2-.2.4-.4.5l-2.1.9c-.2.1-.4.1-.5 0-1.1-.6-2.1-1.3-3.2-1.9C8.5 4 8 4 7.4 4.6c-1 1-2 2-2.9 3-.6.6-.7 1.1-.3 1.8.7 1.1 1.3 2.2 2 3.4.1.1.1.4 0 .5-.2.6-.5 1.1-.7 1.7-.1.2-.2.3-.4.4-1.3.3-2.7.7-4 1-.8.2-1.1.6-1.1 1.4v4.3c0 .8.3 1.2 1.1 1.4 1.3.3 2.7.7 4 1 .2.1.4.2.5.4.3.7.5 1.3.8 2 .1.2.1.3 0 .5-.6 1-1.2 2-1.8 2.9-.4.7-.4 1.2.2 1.8l3 3c.6.6 1.1.7 1.8.2 1-.6 1.9-1.1 2.9-1.7.2-.1.4-.2.6 0 .6.3 1.3.6 1.9.8.2.1.3.2.4.5.3 1.3.7 2.6 1 3.9.1.6.4 1 1 1.2h5.2c.6-.2.9-.6 1-1.2.3-1.3.6-2.6 1-3.9.1-.2.2-.4.4-.5.7-.3 1.3-.5 1.9-.8.2-.1.4-.1.6 0 1 .6 1.9 1.2 2.9 1.7.8.5 1.2.4 1.8-.2l3-3c.6-.6.7-1.1.2-1.8-.6-1-1.2-2-1.8-2.9-.1-.2-.1-.3 0-.5.3-.7.6-1.3.8-2 .1-.2.2-.3.5-.4 1.3-.3 2.7-.7 4-1 .8-.2 1.1-.6 1.1-1.4v-4.3c0-.8-.3-1.2-1.1-1.4"/></symbol><symbol viewBox="0 0 39 40" id="share" xmlns="http://www.w3.org/2000/svg"><path d="M32.5 27.9c-1.7 0-3.2.7-4.3 1.8L12 21.1c.1-.3.1-.7.1-1 0-.4 0-.7-.1-1l16.3-8.5c1.1 1.1 2.6 1.8 4.3 1.8 3.4 0 6.2-2.7 6.2-6.1S36 0 32.5 0s-6.2 2.7-6.2 6.1c0 .4 0 .7.1 1l-16.3 8.5c-1.1-1-2.5-1.7-4.2-1.7-3.3.1-6 2.7-6 6.2s2.7 6.1 6.2 6.1c1.7 0 3.2-.7 4.3-1.8l16.3 8.5c-.1.3-.1.7-.1 1 0 3.4 2.7 6.1 6.2 6.1s6.2-2.7 6.2-6.1c-.2-3.2-3-6-6.5-6"/></symbol><symbol viewBox="0 0 40 37" id="share-generic" xmlns="http://www.w3.org/2000/svg"><path d="M12.1 7.9c-1.3 1.2-2.3 2.5-3.1 3.8H3.8V33h32.4V20.2l3.8-3.8v16.8c0 2.1-1.7 3.8-3.8 3.8H3.8C1.7 37 0 35.3 0 33.2V11.6c0-2 1.7-3.7 3.8-3.7h8.3zM29.5 0c.4 0 .7.1 1 .4l8.9 9c.3.3.4.6.4 1s-.1.7-.4 1l-8.9 9c-.3.3-.6.4-1 .4-.2 0-.4 0-.6-.1-.6-.3-.9-.7-.9-1.4v-4h-2.9c-11.4 0-15.5 9.8-15.6 10.2-.1.2-.3.4-.6.4-.3-.1-.5-.3-.5-.6 0-.2.2-19.3 19.6-19.7v-4c0-.6.3-1.1.9-1.4.3-.1.5-.2.6-.2z"/></symbol><symbol viewBox="0 0 40 40" id="stop" xmlns="http://www.w3.org/2000/svg"><path d="M36.2 40H3.7c-2 0-3.7-1.7-3.7-3.7V3.7C0 1.7 1.7 0 3.7 0h32.6c2 0 3.7 1.7 3.7 3.7v32.6c-.1 2-1.8 3.7-3.8 3.7"/></symbol><symbol viewBox="0 0 40 40" id="stop-downloaded" xmlns="http://www.w3.org/2000/svg"><path d="M20.2 0s-.1 0 0 0h-.1-.1C9 0 0 8.9 0 20s9 20 20 20 20-8.9 20-20C40 9 31.1.1 20.2 0zM20 37c-9.4 0-16.9-7.7-16.9-17S10.6 3 20 3c9.3 0 17 7.6 17 17s-7.6 17-17 17z"/><path d="M25.8 13.1H14.5c-.7 0-1.3.6-1.3 1.3v11.2c0 .7.6 1.3 1.3 1.3h11.3c.7 0 1.2-.6 1.3-1.2V14.4c0-.7-.6-1.3-1.3-1.3z"/></symbol><symbol viewBox="0 0 40 32" id="twitter" xmlns="http://www.w3.org/2000/svg"><path d="M35.9 8v1c0 10.7-8.2 23-23.3 23-4.5 0-8.8-1.2-12.6-3.6.7.1 1.3.1 2 .1 3.7 0 7.3-1.2 10.2-3.5-3.5-.1-6.6-2.3-7.7-5.6.5.1 1 .1 1.5.1.7 0 1.5-.1 2.2-.3-3.8-.8-6.6-4.1-6.6-7.9v-.1c1.1.6 2.4 1 3.7 1C1.7 9.9.6 5.2 2.8 1.5c4.2 5 10.3 8.1 16.9 8.4-.1-.6-.2-1.2-.2-1.8 0-4.5 3.7-8.1 8.2-8.1 2.3 0 4.4.9 6 2.6 1.8-.3 3.6-1 5.2-2C38.3 2.5 37 4 35.3 5c1.6-.2 3.2-.6 4.7-1.3-1.1 1.7-2.5 3.1-4.1 4.3z"/></symbol><symbol viewBox="0 0 40 40" id="visibility-off" xmlns="http://www.w3.org/2000/svg"><path d="M36.8.5c.7-.7 1.9-.7 2.7 0 .7.7.7 1.9 0 2.7l-5 5-2.7 2.7-.3.3c4.9 3.4 8.1 7.7 8.3 8 .3.5.3 1.1 0 1.6-.4.5-8.9 12-19.7 12-2.9 0-5.6-.8-8.1-2l-8.7 8.7c-.7.7-1.9.7-2.7 0-.7-.7-.7-1.9 0-2.7l8-8 4.3-4.3 2.8-2.8 5.9-5.9 2.8-2.8 8.3-8.3.1-.1 4-4.1zm-9.7 15.1l-.9.9-1.9 1.9c.2.5.3 1.1.3 1.6 0 2.5-2.1 4.6-4.6 4.6-.6 0-1.1-.1-1.6-.3l-2.8 2.8c1.3.8 2.8 1.3 4.4 1.3 4.6 0 8.3-3.7 8.3-8.3 0-1.7-.4-3.2-1.2-4.5zM20 7.3c1.8 0 3.4.3 5 .8l-3.7 3.7c-.4-.1-.9-.1-1.3-.1-4.6 0-8.3 3.7-8.3 8.3 0 .4 0 .9.1 1.3l-5.6 5.6C2.7 24 .4 21 .3 20.8c-.3-.5-.3-1.1 0-1.6S9.1 7.3 20 7.3z"/></symbol><symbol viewBox="0 0 40 25" id="visibility-on" xmlns="http://www.w3.org/2000/svg"><path d="M20 0c10.9 0 19.4 11.3 19.7 11.7.3.5.3 1.1 0 1.5-.3.5-8.8 11.8-19.7 11.8S.6 13.7.3 13.3c-.3-.5-.3-1.1 0-1.5C.6 11.3 9.1 0 20 0zm0 4.3c-4.6 0-8.3 3.7-8.3 8.2 0 4.5 3.7 8.2 8.3 8.2s8.3-3.7 8.3-8.2c0-4.5-3.7-8.2-8.3-8.2zM20 8c2.5 0 4.6 2 4.6 4.5S22.5 17 20 17s-4.6-2-4.6-4.5c0-.9.3-1.7.7-2.4.3.7 1 1.1 1.8 1.1 1.1 0 2-.9 2-2 0-.4-.1-.8-.4-1.1.3-.1.4-.1.5-.1z"/></symbol><symbol viewBox="0 0 40 36" id="warning" xmlns="http://www.w3.org/2000/svg"><path d="M39.8 34.2L21.1.6C20.7 0 20-.2 19.4.1c-.2.1-.4.3-.5.5L.2 34.2c-.3.6-.1 1.3.5 1.6.1.1.3.2.5.2h37.5c.7 0 1.2-.5 1.2-1.2.1-.2 0-.4-.1-.6zm-21-22.3h2.3c.8 0 1.4.6 1.3 1.3l-1 9.6c-.1.6-.6 1.1-1.3 1.1h-.2c-.6 0-1.2-.5-1.3-1.1l-1-9.6c-.1-.6.5-1.3 1.2-1.3zM20 31.2c-1.4 0-2.5-1.1-2.5-2.4s1.1-2.4 2.5-2.4 2.5 1.1 2.5 2.4-1.1 2.4-2.5 2.4z"/></symbol><symbol viewBox="0 0 40 32" id="wifi-on" xmlns="http://www.w3.org/2000/svg"><path d="M19.9 23.2c2.4 0 4.4 2 4.4 4.4s-2 4.4-4.4 4.4-4.4-2-4.4-4.4 2-4.4 4.4-4.4zm.1-8.4c3.4 0 6.6 1.3 9 3.7.7.7.7 1.9 0 2.7-.4.4-.8.5-1.3.5s-1-.2-1.3-.5c-1.7-1.7-3.8-2.6-6.3-2.6s-4.6.9-6.2 2.6c-.7.7-1.9.7-2.7 0-.7-.7-.7-1.9 0-2.7 2.3-2.3 5.4-3.7 8.8-3.7zm0-7.5c5.3 0 10.4 2.1 14.2 5.9.7.7.7 1.9 0 2.7-.4.4-.8.5-1.3.5s-1-.2-1.3-.5c-3.1-3.1-7.2-4.8-11.5-4.8s-8.4 1.7-11.4 4.7c-.7.7-1.9.7-2.7 0-.7-.7-.7-1.9 0-2.7 3.7-3.7 8.6-5.8 14-5.8zM20 0c7.4 0 14.3 2.9 19.5 8.1.7.7.7 1.9 0 2.7-.4.4-.8.5-1.3.5s-1-.2-1.3-.5c-4.4-4.5-10.4-7.2-16.8-7.2s-12.2 2.5-16.8 7c-.7.7-1.9.7-2.7 0s-.7-1.9 0-2.7C5.6 2.7 12.7 0 20 0z"/></symbol><symbol viewBox="0 0 40 28" id="youtube" xmlns="http://www.w3.org/2000/svg"><path d="M34 .4c.8.1 2.5.1 4 1.7 0 0 1.2 1.2 1.6 4 .3 2.1.4 4.3.4 6.4v3c0 2.2-.1 4.3-.4 6.4-.4 2.7-1.6 4-1.6 4-1.5 1.6-3.2 1.6-4 1.7 0 0-5.6.4-14 .4-10.4-.1-13.6-.4-13.6-.4-.9-.2-2.9-.1-4.4-1.7 0 0-1.2-1.2-1.6-4-.3-2.1-.4-4.2-.4-6.4v-3C0 10.3.1 8.2.4 6 .8 3.2 2 2 2 2 3.5.4 5.2.4 6 .3 6 .4 11.6 0 20 0s14 .4 14 .4zm-7.3 13.2L15.9 8v11.2l10.8-5.6z"/></symbol></svg>